<?xml version="1.0" encoding="UTF-8"?>
<!DOCTYPE svg PUBLIC "-//W3C//DTD SVG 1.1//EN" "http://www.w3.org/Graphics/SVG/1.1/DTD/svg11.dtd">
<svg version="1.1" xmlns="http://www.w3.org/2000/svg" xmlns:xlink="http://www.w3.org/1999/xlink" x="0" y="0" width="875.219" height="1059.314" viewBox="0, 0, 875.219, 1059.314">
  <defs>
    <clipPath id="Clip_1">
      <path d="M395.537,419.511 L454.035,419.511 L454.035,467.602 L395.537,467.602 z"/>
    </clipPath>
    <clipPath id="Clip_2">
      <path d="M348.876,849.058 L412.642,849.058 L412.642,875.751 L348.876,875.751 z"/>
    </clipPath>
    <clipPath id="Clip_3">
      <path d="M478.407,849.058 L540.559,849.058 L540.559,880.778 L478.407,880.778 z"/>
    </clipPath>
    <radialGradient id="Gradient_1" gradientUnits="userSpaceOnUse" cx="867.597" cy="-400.42" r="37.995" gradientTransform="matrix(1, 0, 0, -1, 0, 0)">
      <stop offset="0" stop-color="#FFB08C"/>
      <stop offset="1" stop-color="#FFAA84" stop-opacity="0"/>
    </radialGradient>
    <clipPath id="Clip_4">
      <path d="M463.292,387.457 C484.276,387.515 501.334,370.551 501.393,349.567 C501.392,328.469 484.243,312.048 463.507,311.466 L463.499,311.466 C442.401,311.468 425.983,328.621 425.402,349.356 C425.344,370.34 442.307,387.398 463.292,387.457 z"/>
    </clipPath>
    <radialGradient id="Gradient_2" gradientUnits="userSpaceOnUse" cx="707.576" cy="-393.067" r="37.995" gradientTransform="matrix(1, 0, 0, -1, 0, 0)">
      <stop offset="0" stop-color="#FFB08C"/>
      <stop offset="1" stop-color="#FFAA84" stop-opacity="0"/>
    </radialGradient>
    <clipPath id="Clip_5">
      <path d="M303.27,380.103 C324.368,380.103 340.789,362.953 341.371,342.218 L341.371,342.21 C341.369,321.111 324.217,304.695 303.482,304.113 C282.497,304.054 265.439,321.018 265.381,342.002 C265.322,362.986 282.286,380.045 303.27,380.103 z"/>
    </clipPath>
  </defs>
  <g id="レイヤー_1">
    <path d="M544.185,1026.103 C544.185,1007.761 443.758,992.892 319.875,992.892 C195.992,992.892 95.566,1007.761 95.566,1026.103 C95.566,1044.445 195.992,1059.314 319.875,1059.314 C443.758,1059.314 544.185,1044.445 544.185,1026.103" fill="#81C6E4" id="path12407"/>
    <path d="M270.934,689.619 C270.934,689.619 206.263,696.172 218.622,704.398 C230.981,712.624 275.735,711.124 275.735,711.124 C275.735,711.124 277.945,721.623 285.36,721.623 C292.776,721.623 292.24,698.105 292.24,698.105 z" fill="#FFD4B3" id="path12409"/>
    <path d="M368.603,492.038 L265.38,689.619 L298.914,700.625 L382.018,584.473 z" fill="#81BEE4" id="path12411"/>
    <path d="M582.907,74.652 L582.97,74.475 C582.964,74.494 581.538,74.034 580.722,73.767 C579.922,73.454 578.529,72.903 578.536,72.883 L578.473,73.06 C311.401,-12.68 179.745,190.442 179.745,190.442 C318.991,206.027 339.63,294.909 339.63,294.909 C340.53,294.209 341.687,293.62 342.641,292.967 C366.025,243.629 430.954,139.304 581.45,74.029 C655.617,219.223 639.971,340.414 626.685,393.871 C627.083,395.351 627.464,396.843 627.727,398.328 C627.727,398.328 699.4,342.583 816.768,419.115 C816.768,419.115 847.97,179.933 582.907,74.652" fill="#5C9BE4" id="path12413"/>
    <path d="M581.559,74.068 C431.063,139.343 366.243,243.707 342.86,293.046 C409.794,247.237 606.19,317.386 626.74,393.89 C640.025,340.434 655.727,219.263 581.559,74.068" fill="#5791DB" id="path12415"/>
    <path d="M185.814,196.982 C187.161,193.229 185.211,189.095 181.458,187.747 C177.705,186.4 173.571,188.351 172.223,192.103 C170.876,195.856 172.826,199.991 176.58,201.338 C180.332,202.685 184.467,200.735 185.814,196.982" fill="#2DA0D2" id="path12417"/>
    <path d="M348.569,297.248 C349.916,293.495 347.966,289.361 344.213,288.013 C340.46,286.666 336.326,288.616 334.978,292.369 C333.631,296.122 335.582,300.257 339.335,301.604 C343.087,302.951 347.222,301.001 348.569,297.248" fill="#2DA0D2" id="path12419"/>
    <path d="M633.972,399.7 C635.319,395.947 633.369,391.812 629.616,390.465 C625.863,389.118 621.728,391.068 620.381,394.821 C619.034,398.574 620.984,402.709 624.737,404.056 C628.49,405.403 632.625,403.453 633.972,399.7" fill="#2DA0D2" id="path12421"/>
    <path d="M821.484,425.17 C822.831,421.417 820.881,417.283 817.128,415.935 C813.375,414.588 809.241,416.538 807.893,420.291 C806.546,424.044 808.496,428.179 812.25,429.526 C816.002,430.873 820.137,428.923 821.484,425.17" fill="#2DA0D2" id="path12423"/>
    <path d="M351.635,841.536 L325.754,987.416 C325.754,987.416 245.254,978.701 275.664,998.649 C306.074,1018.597 341.41,1023.439 350.8,1016.041 C360.19,1008.644 351.06,1000.311 351.06,1000.311 L415.882,857.795 z" fill="#FFD4B3" id="path12425"/>
    <path d="M367.995,691.569 L342.816,847.103 L424.144,868.34 C424.144,868.34 499.197,749.943 496.798,689.619 z" fill="#078B43" id="path12427"/>
    <path d="M474.089,857.111 C474.089,857.111 482.915,896.947 497.646,915.031 C512.377,933.114 569.693,939.41 605.373,937.591 C641.053,935.772 623.292,932.875 627.177,921.123 C631.062,909.37 543.56,883.577 543.56,883.577 L535.854,831.901 z" fill="#FFD4B3" id="path12429"/>
    <path d="M405.428,704.398 L450.763,862.709 C450.763,862.709 507.718,880.839 551.385,838.122 L531.502,722.902 z" fill="#078B43" id="path12431"/>
    <path d="M395.514,435.131 L400.894,480.11 C400.894,480.11 431.008,496.271 452.909,480.912 L454.012,420.746 z" fill="#FFD4B3" id="path12433"/>
    <g clip-path="url(#Clip_1)" id="g12437" opacity="0.46">
      <path d="M395.537,433.897 L398.767,462.465 C406.71,463.526 414.619,467.458 421.935,467.595 C432.988,467.802 442.987,463.532 453.261,461.713 L454.035,419.511 z" fill="#FFB288" id="path12435"/>
    </g>
    <path d="M397.621,469.227 C397.621,469.227 423.478,498.02 452.268,466.857 C452.268,466.857 494.047,459.949 506.075,499.145 C528.217,571.303 557.821,796.428 557.821,796.428 C557.821,796.428 411.57,836.531 333.81,786.989 C333.81,786.989 355.259,621.243 357.767,583.714 C362.047,519.653 365.887,506.991 368.604,492.038 C371.32,477.087 397.621,469.227 397.621,469.227" fill="#81C6E4" id="path12439"/>
    <g clip-path="url(#Clip_2)" id="g12443" opacity="0.46">
      <path d="M350.301,849.058 L348.877,861.504 L407.104,875.751 L412.642,864.918 z" fill="#FFB288" id="path12441"/>
    </g>
    <g clip-path="url(#Clip_3)" id="g12447" opacity="0.46">
      <path d="M478.407,866.053 L483.714,880.778 C483.714,880.778 524.245,878.791 540.559,861.503 L538.185,849.058 C538.185,849.058 517.245,866.105 478.407,866.053" fill="#FFB288" id="path12445"/>
    </g>
    <path d="M326.622,171.051 C326.622,171.051 268.244,223.732 262.442,323.184 C256.639,422.636 350.466,454.185 413.121,454.385 C495.8,454.648 539.92,393.478 553.998,346.678 C572.574,284.925 527.624,90.562 326.622,171.051" fill="#FFD4B3" id="path12449"/>
    <path d="M440.937,269.358 C440.937,269.358 454.112,266.018 459.135,281.228" fill-opacity="0" stroke="#734B23" stroke-width="3.377" stroke-linecap="round" stroke-linejoin="round" id="path12451"/>
    <path d="M364.772,335.135 C364.772,335.135 350.029,342.658 364.732,349.607" fill-opacity="0" stroke="#FFB288" stroke-width="3.736" stroke-linecap="round" stroke-linejoin="round" id="path12453"/>
    <g clip-path="url(#Clip_4)" id="g12457" opacity="0.61">
      <path d="M463.292,387.457 C484.276,387.515 501.334,370.551 501.393,349.567 C501.451,328.583 484.487,311.524 463.503,311.466 C442.519,311.408 425.46,328.372 425.402,349.356 C425.344,370.34 442.307,387.398 463.292,387.457 z" fill="url(#Gradient_1)" id="path12455"/>
    </g>
    <g clip-path="url(#Clip_5)" id="g12461" opacity="0.61">
      <path d="M303.27,380.103 C324.254,380.162 341.313,363.198 341.371,342.214 C341.429,321.229 324.466,304.171 303.482,304.113 C282.497,304.054 265.439,321.018 265.381,342.002 C265.322,362.986 282.286,380.045 303.27,380.103 z" fill="url(#Gradient_2)" id="path12459"/>
    </g>
    <path d="M363.259,374.665 L413.596,375.259 C413.596,375.259 407.423,402.924 388.47,402.847 C366.341,402.757 363.259,374.665 363.259,374.665" fill="#DD2326" id="path12463"/>
    <path d="M389.03,134.89 C389.03,134.89 291.796,150.708 271.207,250.402 L315.521,215.587 L294.282,250.341 L345.879,215.609 C345.879,215.609 329.498,231.871 334.019,241.966 L387.122,215.709 L365.029,243.024 L440.87,210.25 L488.008,263.561 L480.632,228.972 L545.362,312.346 L546.525,346.658 C546.525,346.658 592.944,315.417 580.118,251.095 C567.292,186.772 487.618,121.494 389.03,134.89" fill="#A17A51" id="path12465"/>
    <path d="M557.478,314.277 C557.478,314.277 563.816,289.035 581.156,306.121 C598.495,323.208 577.439,379.216 545.204,369.299" fill="#FFD4B3" id="path12467"/>
    <path d="M345.563,317.706 C346.098,307.609 341.27,299.144 334.779,298.8 C328.288,298.456 322.592,306.362 322.056,316.459 C321.521,326.557 326.349,335.021 332.84,335.365 C339.331,335.71 345.028,327.803 345.563,317.706" fill="#734B23" id="path12469"/>
    <path d="M441.169,319.108 C441.853,309.02 437.151,300.485 430.666,300.045 C424.18,299.605 418.368,307.426 417.683,317.515 C416.999,327.603 421.702,336.138 428.187,336.578 C434.672,337.018 440.484,329.196 441.169,319.108" fill="#734B23" id="path12471"/>
    <path d="M326.622,171.051 C326.622,171.051 291.284,184.802 271.207,250.402 L315.52,215.587 L294.282,250.341 L325.056,229.626" fill-opacity="0" stroke="#886138" stroke-width="3.352" stroke-linecap="round" stroke-linejoin="round" id="path12473"/>
    <path d="M439.556,153.813 C439.556,153.813 491.881,187.581 511.951,212.762 L486.159,171.23 C486.159,171.23 542.287,207.849 546.51,233.863" fill-opacity="0" stroke="#886138" stroke-width="3.352" stroke-linecap="round" stroke-linejoin="round" id="path12475"/>
    <path d="M387.122,215.708 L365.029,243.023 L420.849,218.901" fill-opacity="0" stroke="#886138" stroke-width="3.352" stroke-linecap="round" stroke-linejoin="round" id="path12477"/>
    <path d="M573.799,94.719 L573.799,94.719 C568.947,92.977 566.403,87.583 568.144,82.731 L586.568,31.408 C588.309,26.557 593.704,24.012 598.555,25.754 L598.555,25.754 C603.407,27.495 605.952,32.89 604.21,37.741 L585.787,89.064 C584.045,93.916 578.651,96.461 573.799,94.719" fill="#2DA0D2" id="path12479"/>
    <path d="M386.686,615.966 L386.686,615.966 C383.158,614.7 381.308,610.778 382.575,607.25 L508.085,257.61 C509.352,254.082 513.274,252.232 516.801,253.499 L516.801,253.499 C520.329,254.765 522.179,258.687 520.912,262.215 L395.402,611.855 C394.135,615.382 390.213,617.232 386.686,615.966" fill="#CBCBCB" id="path12481"/>
    <path d="M385.903,587.188 C385.74,587.641 382.755,596.589 376.331,600.103 C371.574,602.704 364.859,602.479 356.539,599.492 C348.758,596.698 347.139,592.84 346.62,591.578 C344.13,585.508 346.986,577.033 348.269,574.356 C351.243,568.375 348.795,561.112 342.814,558.139 C336.827,555.156 329.568,557.601 326.595,563.581 C325.613,565.554 317.206,583.353 324.109,600.518 C326.904,607.465 333.365,616.872 348.283,622.227 C363.395,627.652 376.679,627.327 387.767,621.263 C402.146,613.398 405.439,601.295 407.726,594.52 C407.739,594.482 407.745,594.454 407.759,594.417 C408.425,592.566 427.144,540.768 430.579,531.262 C430.877,530.437 430.448,529.531 429.623,529.234 L410.814,522.483 C409.99,522.187 409.083,522.615 408.787,523.439 z" fill="#2DA0D2" id="path12483"/>
    <path d="M621.849,1004.314 C621.849,1004.314 627.37,1003.718 628.758,1000.681 C630.146,997.645 644.921,925.766 644.921,925.766 C644.921,925.766 641.944,925.956 642.719,922.37 C643.495,918.784 646.354,920.654 646.354,920.654 L651.438,897.146 L644.454,895.635 z" fill="#2DA0D2" id="path12485"/>
    <path d="M558.03,943.678 L595.592,951.801 C596.057,968.5 597.959,986.01 603.233,995.733 C608.248,1004.979 617.442,1004.896 621.703,1004.283 C623.05,1004.089 624.174,1002.931 624.497,1001.436 L646.496,899.717 C646.911,897.797 645.883,895.945 644.2,895.581 L622.922,890.98 L604.897,887.081 L571.817,879.927 z" fill="#2DA0D2" id="path12487"/>
    <path d="M559.543,879.214 L546.558,939.254 C546.338,940.275 546.889,941.268 547.783,941.461 L558.03,943.677 L571.817,879.927 L561.57,877.71 C560.676,877.517 559.764,878.194 559.543,879.214" fill="#2DA0D2" id="path12489"/>
    <path d="M255.433,991.928 C255.433,991.928 255.393,997.481 258.251,999.207 C261.109,1000.934 330.823,1023.84 330.823,1023.84 C330.823,1023.84 330.975,1020.861 334.449,1022.042 C337.922,1023.222 335.738,1025.849 335.738,1025.849 L358.509,1033.59 L360.809,1026.825 z" fill="#2DA0D2" id="path12491"/>
    <path d="M322.976,935.47 L310.606,971.855 C293.965,970.405 276.351,970.291 266.088,974.417 C256.329,978.34 255.36,987.484 255.481,991.787 C255.519,993.147 256.54,994.396 257.989,994.889 L356.521,1028.386 C358.381,1029.019 360.338,1028.21 360.892,1026.58 L367.9,1005.968 L373.836,988.507 L384.729,956.464 z" fill="#2DA0D2" id="path12493"/>
    <path d="M386.843,944.352 L328.684,924.58 C327.695,924.244 326.646,924.677 326.351,925.544 L322.977,935.47 L384.73,956.464 L388.105,946.538 C388.399,945.672 387.831,944.688 386.843,944.352" fill="#2DA0D2" id="path12495"/>
    <path d="M582.907,73.099 L582.971,72.922 C582.964,72.941 581.538,72.481 580.722,72.214 C579.922,71.901 578.529,71.349 578.536,71.33 L578.473,71.507 C311.401,-14.233 179.745,188.889 179.745,188.889 C325.16,167.529 350.63,261.356 350.63,261.356 C351.53,260.656 352.687,260.067 353.641,259.414 C377.025,210.076 430.954,137.751 581.45,72.476 C655.617,217.67 639.971,307.861 626.685,361.318 C627.083,362.798 627.464,364.29 627.727,365.775 C627.727,365.775 703.159,305.667 816.768,417.562 C816.768,417.562 847.97,178.38 582.907,73.099" fill="#81C6E4" id="path12497"/>
    <path d="M581.559,72.515 C431.063,137.79 377.243,210.154 353.86,259.492 C420.794,213.684 606.19,284.833 626.74,361.337 C640.025,307.881 655.727,217.71 581.559,72.515" fill="#81C6E4" id="path12499"/>
    <path d="M425.065,575.417 C425.065,575.417 388.155,561.548 382.289,570.719 C376.424,579.891 378.994,606.447 402.668,607.16 C426.342,607.873 429.234,598.87 429.234,598.87 z" fill="#FFD4B3" id="path12501"/>
    <g id="g12507">
      <path d="M478.407,532.633 C478.407,532.633 470.978,575.519 463.397,575.519 L427.065,572.417 L429.426,607.2 C429.426,607.2 479.09,632.41 501.393,607.2" fill="#81C6E4" id="path12503"/>
      <path d="M478.407,532.633 C478.407,532.633 470.978,575.519 463.397,575.519 L427.065,572.417 L429.426,607.2 C429.426,607.2 479.09,632.41 501.393,607.2" fill-opacity="0" stroke="#2DA0D2" stroke-width="3" id="path12505"/>
    </g>
    <path d="M777.845,551.351 C777.845,551.351 707.218,602.507 741.806,620.526 C777.28,639.008 777.845,551.351 777.845,551.351" fill="#79A7E2" id="path12509"/>
    <path d="M186.553,436.31 C186.553,436.31 134.235,474.204 159.856,487.553 C186.135,501.243 186.553,436.31 186.553,436.31" fill="#81C6E4" id="path12511"/>
    <path d="M668.553,718.31 C668.553,718.31 616.235,756.204 641.856,769.553 C668.135,783.243 668.553,718.31 668.553,718.31" fill="#9ABDE9" id="path12513"/>
    <path d="M208.845,779.351 C208.845,779.351 138.218,830.506 172.806,848.526 C208.28,867.008 208.845,779.351 208.845,779.351" fill="#AADDE5" id="path12515"/>
    <path d="M32.219,594.714 C32.219,594.714 -17.71,630.878 6.741,643.617 C31.82,656.682 32.219,594.714 32.219,594.714" fill="#AADDE5" id="path12517"/>
    <path d="M875.219,107.714 C875.219,107.714 825.29,143.878 849.741,156.617 C874.82,169.682 875.219,107.714 875.219,107.714" fill="#AADDE5" id="path12519"/>
    <path d="M287.413,0 C287.413,0 238.326,35.554 262.365,48.078 C287.02,60.924 287.413,0 287.413,0" fill="#79A7E2" id="path12521"/>
    <path d="M229.698,968.872 C229.698,968.872 204.74,936.692 196.86,953.111 C188.777,969.952 229.698,968.872 229.698,968.872" fill="#AADDE5" id="path12523"/>
    <path d="M188.289,978.697 C188.289,978.697 149.867,965.198 152.152,983.267 C154.496,1001.799 188.289,978.697 188.289,978.697" fill="#81C6E4" id="path12525"/>
    <path d="M427.672,1005.272 C427.672,1005.272 466.06,991.679 452.945,979.042 C439.494,966.081 427.672,1005.272 427.672,1005.272" fill="#9ABDE9" id="path12527"/>
    <path d="M357.655,263.932 C359.002,260.179 357.052,256.045 353.299,254.697 C349.546,253.35 345.412,255.301 344.064,259.053 C342.717,262.806 344.668,266.941 348.421,268.288 C352.173,269.635 356.308,267.685 357.655,263.932" fill="#2DA0D2" id="path12529"/>
    <path d="M636.535,367.777 C637.882,364.024 635.932,359.89 632.179,358.542 C628.426,357.195 624.292,359.146 622.944,362.898 C621.597,366.65 623.547,370.786 627.301,372.133 C631.053,373.48 635.188,371.529 636.535,367.777" fill="#2DA0D2" id="path12531"/>
  </g>
</svg>
